<svg width="32" height="33" fill="none" xmlns="http://www.w3.org/2000/svg"><g clip-path="url(#clip0_1_4337)" fill="#BBBDC1"><path d="M16 20.285a4.267 4.267 0 10-.001-8.533 4.267 4.267 0 000 8.533z"/><path d="M12 2.686L9.56 5.352H5.332A2.675 2.675 0 002.666 8.02v16c0 1.466 1.2 2.667 2.667 2.667h21.333c1.467 0 2.667-1.2 2.667-2.667v-16c0-1.467-1.2-2.667-2.667-2.667h-4.227L20 2.686h-8zm4 20a6.669 6.669 0 01-6.667-6.667 6.67 6.67 0 016.666-6.667 6.67 6.67 0 016.667 6.667 6.67 6.67 0 01-6.667 6.667z"/></g><defs><clipPath id="clip0_1_4337"><path fill="#fff" transform="translate(0 .019)" d="M0 0h32v32H0z"/></clipPath></defs></svg>