<svg width="108" height="35" fill="none" xmlns="http://www.w3.org/2000/svg"><g clip-path="url(#clip0_1_620)"><path d="M30.106 24.85c0 2.806-.918 5.157-2.756 7.052-1.835 1.895-4.119 2.843-6.85 2.844h-8.048v-13.43h5.195v8.537h2.854c1.375 0 2.496-.458 3.361-1.373.868-.912 1.3-2.122 1.3-3.63 0-1.51-.434-2.721-1.3-3.636-.865-.914-1.985-1.37-3.361-1.37H9.598a9.5 9.5 0 01-4.4-1.008 9.387 9.387 0 01-2.449-1.834A9.657 9.657 0 010 10.338v-.766C.076 6.927.993 4.7 2.749 2.892 4.584.995 6.867.048 9.599.047h8.048V13.48h-5.195V4.94H9.598c-1.375 0-2.496.458-3.362 1.372-.867.914-1.3 2.125-1.3 3.633 0 1.51.433 2.722 1.3 3.634.866.914 1.986 1.372 3.362 1.373h10.903c2.731 0 5.014.947 6.85 2.84 1.837 1.894 2.755 4.247 2.755 7.057z" fill="#4A4A4A"/><path d="M48.782 0H44.14l-4.92 14.926h4.132l.639-2.154h4.963l.639 2.154h4.11L48.783 0zM44.97 9.489l1.492-5.075 1.512 5.075H44.97zM60.86 0h-6.071v9.91h3.92V3.688h2.15a3.334 3.334 0 012.535 1.034c.654.69.98 1.603.98 2.74 0 1.137-.326 2.05-.98 2.74a3.338 3.338 0 01-2.534 1.034h-6.071v3.69h6.07c2.06 0 3.781-.715 5.166-2.144 1.385-1.428 2.077-3.202 2.077-5.32 0-2.118-.692-3.891-2.077-5.32C64.64.714 62.92 0 60.86 0zm15.08 0h-6.07v3.689h6.07a3.334 3.334 0 012.535 1.034c.653.69.98 1.603.98 2.74 0 1.137-.327 2.05-.98 2.74a3.337 3.337 0 01-2.535 1.034h-2.15v-6.22h-3.92v9.91h6.071c2.06 0 3.78-.715 5.166-2.144 1.385-1.428 2.077-3.202 2.077-5.32 0-2.118-.693-3.891-2.077-5.32C79.72.714 77.999 0 75.94 0z" fill="#E97522"/><path d="M45.012 19.754a5.264 5.264 0 013.792 1.471c1.022.981 1.533 2.232 1.533 3.753 0 1.522-.51 2.772-1.533 3.753a5.266 5.266 0 01-3.792 1.471h-1.981v4.478h-3.813V19.754h5.794zm0 6.823a1.442 1.442 0 001.076-.447 1.58 1.58 0 00.437-1.152 1.545 1.545 0 00-.437-1.14 1.462 1.462 0 00-1.076-.438h-1.981v3.178h1.981zm14.826-6.823h3.791V34.68h-3.791v-5.736H55.64v5.736h-3.813V19.754h3.813v5.522h4.197v-5.522zM78.785 32.75a7.97 7.97 0 01-11.098 0 7.483 7.483 0 01-2.269-5.533 7.492 7.492 0 012.27-5.533 7.97 7.97 0 0111.097 0 7.486 7.486 0 012.269 5.533 7.493 7.493 0 01-2.269 5.534zm-8.425-2.622a4.249 4.249 0 007.141-1.595 4.258 4.258 0 00-1.993-5.043 4.246 4.246 0 00-5.323 1.015 4.258 4.258 0 00-.975 2.712 3.93 3.93 0 001.15 2.91zM92.3 19.754v3.689h-3.685V34.68h-3.812V23.443h-3.686v-3.69h11.184zm13.431 12.996a7.968 7.968 0 01-11.097 0 7.483 7.483 0 01-2.27-5.533 7.492 7.492 0 012.27-5.533 7.97 7.97 0 0111.097 0A7.495 7.495 0 01108 27.217a7.479 7.479 0 01-2.269 5.534zm-8.424-2.622a4.249 4.249 0 007.141-1.595 4.257 4.257 0 00-1.994-5.043 4.244 4.244 0 00-5.322 1.015 4.257 4.257 0 00-.976 2.712 3.928 3.928 0 001.15 2.91z" fill="#B1B1B1"/></g><defs><clipPath id="clip0_1_620"><path fill="#fff" d="M0 0h108v35H0z"/></clipPath></defs></svg>