<?xml version="1.0" encoding="utf-8"?><svg viewBox="0 0 135 156" xmlns="http://www.w3.org/2000/svg" xmlns:xlink="http://www.w3.org/1999/xlink"><style>:root>svg{display:none}:root>svg:target{display:block}</style><svg fill="none" viewBox="0 0 24 45" id="arrow" xmlns="http://www.w3.org/2000/svg"><path d="M21.422 42.5 2.586 23.665a2 2 0 0 1 0-2.828L21.422 2" stroke="#E97522" stroke-width="4" stroke-linecap="round"/></svg><svg fill="none" viewBox="0 0 24 45" id="arrow@2x" xmlns="http://www.w3.org/2000/svg"><path d="M21.422 42.5 2.586 23.665a2 2 0 0 1 0-2.828L21.422 2" stroke="#E97522" stroke-width="4" stroke-linecap="round"/></svg><svg fill="none" viewBox="0 0 23 31" id="facebook" xmlns="http://www.w3.org/2000/svg"><path fill-rule="evenodd" clip-rule="evenodd" d="M14.784 8.169V11.8h7.075l-1.13 5.6h-5.945V31H6.812V17.4H.329v-5.6h6.483V7.535C6.812 2.678 10.618 0 16.454 0c2.793 0 5.71.382 5.71.382v4.762h-3.223c-3.169 0-4.157 1.492-4.157 3.025z" fill="#B1B1B1"/></svg><svg fill="none" viewBox="0 0 26 26" id="icon-call" xmlns="http://www.w3.org/2000/svg"><g clip-path="url(#da)"><path d="M21.677 16.662a12.4 12.4 0 0 1-3.824-.607 1.059 1.059 0 0 0-1.094.26l-1.7 2.134c-3.066-1.462-5.937-4.225-7.465-7.399l2.113-1.798c.292-.304.379-.726.26-1.105a12.082 12.082 0 0 1-.607-3.825c0-.585-.487-1.072-1.072-1.072h-3.75c-.585 0-1.289.26-1.289 1.072 0 10.065 8.374 18.428 18.427 18.428.77 0 1.073-.683 1.073-1.278v-3.738c0-.585-.488-1.072-1.073-1.072z" fill="#4A4A4A"/></g><defs><clipPath id="da"><path fill="#fff" d="M0 0h26v26H0z"/></clipPath></defs></svg><svg fill="none" viewBox="0 0 135 156" id="icon-play" xmlns="http://www.w3.org/2000/svg"><path d="M135 78 0 155.942V.058L135 78z" fill="#D8D8D8"/></svg><svg fill="none" viewBox="0 0 135 156" id="icon-play@2x" xmlns="http://www.w3.org/2000/svg"><path d="M135 78 0 155.942V.058L135 78z" fill="#D8D8D8"/></svg><svg fill="none" viewBox="0 0 32 31" id="instagram" xmlns="http://www.w3.org/2000/svg"><path fill-rule="evenodd" clip-rule="evenodd" d="M30.503 5.345a7.652 7.652 0 0 0-1.81-2.745A7.747 7.747 0 0 0 25.92.81c-.992-.383-2.13-.637-3.802-.72C20.445.019 19.913 0 15.66 0c-4.252 0-4.785.018-6.457.09-1.662.083-2.801.337-3.802.728A7.746 7.746 0 0 0 2.627 2.61a7.651 7.651 0 0 0-1.81 2.746c-.385.98-.642 2.108-.725 3.753C.018 10.764 0 11.291 0 15.5c0 4.21.018 4.736.092 6.39.083 1.655.34 2.783.735 3.764A7.651 7.651 0 0 0 2.636 28.4a7.747 7.747 0 0 0 2.774 1.79c.992.383 2.13.646 3.802.72 1.672.072 2.205.09 6.457.09 4.253 0 4.785-.018 6.457-.09 1.662-.074 2.801-.337 3.803-.72a7.747 7.747 0 0 0 2.773-1.79 7.653 7.653 0 0 0 1.81-2.745c.386-.982.652-2.11.725-3.764.074-1.655.092-2.182.092-6.391 0-4.21-.018-4.736-.092-6.39-.082-1.646-.349-2.774-.734-3.765zM15.66 23.464c-4.445 0-8.046-3.564-8.046-7.964s3.6-7.964 8.046-7.964c4.445 0 8.046 3.564 8.046 7.964s-3.6 7.964-8.046 7.964zM24.027 9.09a1.876 1.876 0 0 1-1.883-1.864c0-1.027.846-1.863 1.883-1.863 1.038 0 1.883.836 1.883 1.863a1.882 1.882 0 0 1-1.883 1.864zm-3.14 6.409c0 2.855-2.334 5.164-5.218 5.164s-5.217-2.31-5.217-5.164c0-2.854 2.333-5.164 5.217-5.164 2.875 0 5.217 2.31 5.217 5.164z" fill="#B1B1B1"/></svg><svg fill="none" viewBox="0 0 108 35" id="logo" xmlns="http://www.w3.org/2000/svg"><g clip-path="url(#ha)"><path d="M30.106 24.85c0 2.806-.918 5.157-2.756 7.052-1.835 1.895-4.119 2.843-6.85 2.844h-8.048v-13.43h5.195v8.537h2.854c1.375 0 2.496-.458 3.361-1.373.868-.912 1.3-2.122 1.3-3.63 0-1.51-.434-2.721-1.3-3.636-.865-.914-1.985-1.37-3.361-1.37H9.598a9.5 9.5 0 0 1-4.4-1.008 9.387 9.387 0 0 1-2.449-1.834A9.657 9.657 0 0 1 0 10.338v-.766C.076 6.927.993 4.7 2.749 2.892 4.584.995 6.867.048 9.599.047h8.048V13.48h-5.195V4.94H9.598c-1.375 0-2.496.458-3.362 1.372-.867.914-1.3 2.125-1.3 3.633 0 1.51.433 2.722 1.3 3.634.866.914 1.986 1.372 3.362 1.373h10.903c2.731 0 5.014.947 6.85 2.84 1.837 1.894 2.755 4.247 2.755 7.057z" fill="#4A4A4A"/><path d="M48.782 0H44.14l-4.92 14.926h4.132l.639-2.154h4.963l.639 2.154h4.11L48.783 0zM44.97 9.489l1.492-5.075 1.512 5.075H44.97zM60.86 0h-6.071v9.91h3.92V3.688h2.15a3.334 3.334 0 0 1 2.535 1.034c.654.69.98 1.603.98 2.74 0 1.137-.326 2.05-.98 2.74a3.338 3.338 0 0 1-2.534 1.034h-6.071v3.69h6.07c2.06 0 3.781-.715 5.166-2.144 1.385-1.428 2.077-3.202 2.077-5.32 0-2.118-.692-3.891-2.077-5.32C64.64.714 62.92 0 60.86 0zm15.08 0h-6.07v3.689h6.07a3.334 3.334 0 0 1 2.535 1.034c.653.69.98 1.603.98 2.74 0 1.137-.327 2.05-.98 2.74a3.337 3.337 0 0 1-2.535 1.034h-2.15v-6.22h-3.92v9.91h6.071c2.06 0 3.78-.715 5.166-2.144 1.385-1.428 2.077-3.202 2.077-5.32 0-2.118-.693-3.891-2.077-5.32C79.72.714 77.999 0 75.94 0z" fill="#E97522"/><path d="M45.012 19.754a5.264 5.264 0 0 1 3.792 1.471c1.022.981 1.533 2.232 1.533 3.753 0 1.522-.51 2.772-1.533 3.753a5.266 5.266 0 0 1-3.792 1.471h-1.981v4.478h-3.813V19.754h5.794zm0 6.823a1.442 1.442 0 0 0 1.076-.447 1.58 1.58 0 0 0 .437-1.152 1.545 1.545 0 0 0-.437-1.14 1.462 1.462 0 0 0-1.076-.438h-1.981v3.178h1.981zm14.826-6.823h3.791V34.68h-3.791v-5.736H55.64v5.736h-3.813V19.754h3.813v5.522h4.197v-5.522zM78.785 32.75a7.97 7.97 0 0 1-11.098 0 7.483 7.483 0 0 1-2.269-5.533 7.492 7.492 0 0 1 2.27-5.533 7.97 7.97 0 0 1 11.097 0 7.486 7.486 0 0 1 2.269 5.533 7.493 7.493 0 0 1-2.269 5.534zm-8.425-2.622a4.249 4.249 0 0 0 7.141-1.595 4.258 4.258 0 0 0-1.993-5.043 4.246 4.246 0 0 0-5.323 1.015 4.258 4.258 0 0 0-.975 2.712 3.93 3.93 0 0 0 1.15 2.91zM92.3 19.754v3.689h-3.685V34.68h-3.812V23.443h-3.686v-3.69h11.184zm13.431 12.996a7.968 7.968 0 0 1-11.097 0 7.483 7.483 0 0 1-2.27-5.533 7.492 7.492 0 0 1 2.27-5.533 7.97 7.97 0 0 1 11.097 0A7.495 7.495 0 0 1 108 27.217a7.479 7.479 0 0 1-2.269 5.534zm-8.424-2.622a4.249 4.249 0 0 0 7.141-1.595 4.257 4.257 0 0 0-1.994-5.043 4.244 4.244 0 0 0-5.322 1.015 4.257 4.257 0 0 0-.976 2.712 3.928 3.928 0 0 0 1.15 2.91z" fill="#B1B1B1"/></g><defs><clipPath id="ha"><path fill="#fff" d="M0 0h108v35H0z"/></clipPath></defs></svg><svg fill="none" viewBox="0 0 34 27" id="telegram" xmlns="http://www.w3.org/2000/svg"><path fill-rule="evenodd" clip-rule="evenodd" d="M33.706 2.539c-.082 1.1-.766 4.946-1.44 9.097l-2.124 12.322s-.166 1.808-1.616 2.114c-1.44.316-3.824-1.1-4.248-1.416-.342-.239-6.373-3.769-8.58-5.49-.59-.47-1.274-1.417.083-2.507 3.057-2.593 6.714-5.807 8.921-7.845 1.016-.937 2.042-3.138-2.207-.469l-11.977 7.453s-1.358.784-3.907.076C4.062 15.166 1.09 14.23 1.09 14.23s-2.041-1.177 1.44-2.43l19.8-7.529c1.959-.784 8.58-3.29 8.58-3.29s3.057-1.1 2.797 1.559z" fill="#B1B1B1"/></svg><svg fill="none" viewBox="0 0 34 27" id="telegram@2x" xmlns="http://www.w3.org/2000/svg"><path fill-rule="evenodd" clip-rule="evenodd" d="M33.706 2.539c-.082 1.1-.766 4.946-1.44 9.097l-2.124 12.322s-.166 1.808-1.616 2.114c-1.44.316-3.824-1.1-4.248-1.416-.342-.239-6.373-3.769-8.58-5.49-.59-.47-1.274-1.417.083-2.507 3.057-2.593 6.714-5.807 8.921-7.845 1.016-.937 2.042-3.138-2.207-.469l-11.977 7.453s-1.358.784-3.907.076C4.062 15.166 1.09 14.23 1.09 14.23s-2.041-1.177 1.44-2.43l19.8-7.529c1.959-.784 8.58-3.29 8.58-3.29s3.057-1.1 2.797 1.559z" fill="#B1B1B1"/></svg><svg fill="none" viewBox="0 0 32 29" id="twitter" xmlns="http://www.w3.org/2000/svg"><path fill-rule="evenodd" clip-rule="evenodd" d="M27.807 5.185a12.06 12.06 0 0 0 3.687-1.084 13.757 13.757 0 0 1-3.209 3.563c.01.292.02.593.02.894 0 9.084-6.466 19.563-18.288 19.563-3.631 0-7.009-1.134-9.852-3.091.507.06 1.013.09 1.53.09 3.011 0 5.78-1.104 7.984-2.941-2.815-.06-5.188-2.048-6.005-4.778.394.08.798.12 1.21.12.592 0 1.155-.08 1.699-.24-2.937-.633-5.16-3.413-5.16-6.746v-.09a6.162 6.162 0 0 0 2.908.863c-1.726-1.235-2.862-3.342-2.862-5.721 0-1.255.32-2.44.873-3.453C5.513 6.299 10.252 9.03 15.59 9.32a7.133 7.133 0 0 1-.168-1.566c0-3.795 2.88-6.876 6.427-6.876 1.848 0 3.518.833 4.691 2.168a12.512 12.512 0 0 0 4.082-1.666c-.47 1.606-1.483 2.95-2.815 3.804z" fill="#B1B1B1"/></svg></svg>