<svg width="32" height="33" viewBox="0 0 32 33" fill="none" xmlns="http://www.w3.org/2000/svg">
<g clip-path="url(#clip0_1_4337)">
<path d="M15.9991 20.2853C18.3555 20.2853 20.2658 18.375 20.2658 16.0186C20.2658 13.6622 18.3555 11.752 15.9991 11.752C13.6427 11.752 11.7324 13.6622 11.7324 16.0186C11.7324 18.375 13.6427 20.2853 15.9991 20.2853Z" fill="#BBBDC1"/>
<path d="M11.9993 2.68555L9.55935 5.35221H5.33268C3.86602 5.35221 2.66602 6.55221 2.66602 8.01888V24.0189C2.66602 25.4855 3.86602 26.6855 5.33268 26.6855H26.666C28.1327 26.6855 29.3327 25.4855 29.3327 24.0189V8.01888C29.3327 6.55221 28.1327 5.35221 26.666 5.35221H22.4394L19.9993 2.68555H11.9993ZM15.9993 22.6855C12.3193 22.6855 9.33268 19.6989 9.33268 16.0189C9.33268 12.3389 12.3193 9.35221 15.9993 9.35221C19.6793 9.35221 22.666 12.3389 22.666 16.0189C22.666 19.6989 19.6793 22.6855 15.9993 22.6855Z" fill="#BBBDC1"/>
</g>
<defs>
<clipPath id="clip0_1_4337">
<rect width="32" height="32" fill="white" transform="translate(0 0.0185547)"/>
</clipPath>
</defs>
</svg>
