<svg width="113" height="36" viewBox="0 0 113 36" fill="none" xmlns="http://www.w3.org/2000/svg">
<g clip-path="url(#clip0_1_2065)">
<path d="M31.5003 25.5591C31.5003 28.4461 30.539 30.8645 28.6164 32.8141C26.6959 34.7632 24.307 35.738 21.4498 35.7386H13.0282V21.9246H18.4641V30.7059H21.4498C22.8888 30.7059 24.0612 30.2352 24.9672 29.2938C25.8745 28.3557 26.3275 27.1108 26.3262 25.5591C26.3262 24.0074 25.8732 22.7612 24.9672 21.8204C24.0619 20.8804 22.8894 20.4104 21.4498 20.4103H10.0424C8.44527 20.4336 6.86591 20.0781 5.43784 19.3739C5.34589 19.3287 5.25395 19.2795 5.16404 19.2303C4.31804 18.7639 3.54691 18.1767 2.87577 17.4879C1.05359 15.6545 0.0230427 13.1984 0 10.634L0 9.84527C0.0799666 7.12535 1.03858 4.83484 2.87585 2.97375C4.79637 1.02482 7.18523 0.0500026 10.0424 0.0493164H18.4641V13.8652H13.0282V5.08206H10.0424C8.60351 5.08206 7.43107 5.55209 6.52511 6.49216C5.61779 7.43228 5.16412 8.67784 5.16412 10.2288C5.16412 11.7825 5.61779 13.0287 6.52511 13.9675C7.4304 14.9076 8.60284 15.3783 10.0424 15.3796H21.4498C24.3077 15.3796 26.6965 16.3531 28.6164 18.3001C30.539 20.2491 31.5003 22.6688 31.5003 25.5591Z" fill="#4A4A4A"/>
<path d="M51.0411 0H46.1825L41.0342 15.3526H45.3579L46.0265 13.1373H51.2193L51.888 15.3526H56.1894L51.0411 0ZM47.0517 9.75991L48.6118 4.54005L50.1942 9.75991H47.0517Z" fill="#E97522"/>
<path d="M63.677 1.28116e-08H57.3252V10.1923H61.426V3.79429H63.6771C64.1704 3.77703 64.6619 3.86291 65.1191 4.04628C65.5762 4.22965 65.9887 4.50633 66.3292 4.85806C67.0124 5.56734 67.3541 6.50675 67.3544 7.67629C67.3544 8.84615 67.0127 9.78556 66.3292 10.4945C65.9887 10.8463 65.5763 11.123 65.1191 11.3064C64.6619 11.4897 64.1704 11.5756 63.677 11.5583H57.3252V15.3526H63.677C65.8311 15.3526 67.6326 14.6178 69.0815 13.1484C70.5304 11.6789 71.2548 9.85485 71.2545 7.67629C71.2545 5.49784 70.5302 3.67381 69.0815 2.20422C67.6329 0.734628 65.8314 -0.000112027 63.677 1.28116e-08Z" fill="#E97522"/>
<path d="M79.4564 1.28116e-08H73.1045V3.79429H79.4564C79.9497 3.77703 80.4412 3.86291 80.8984 4.04628C81.3555 4.22964 81.768 4.50632 82.1085 4.85806C82.7917 5.5674 83.1334 6.50681 83.1337 7.67629C83.1337 8.84615 82.7919 9.78556 82.1085 10.4945C81.768 10.8463 81.3556 11.123 80.8984 11.3064C80.4412 11.4897 79.9497 11.5756 79.4564 11.5583H77.2053V5.16032H73.1045V15.3526H79.4563C81.6104 15.3526 83.4119 14.6178 84.8608 13.1484C86.3097 11.6789 87.0341 9.85485 87.0338 7.67629C87.0338 5.49784 86.3095 3.67381 84.8608 2.20422C83.4121 0.734628 81.6106 -0.000112027 79.4564 1.28116e-08Z" fill="#E97522"/>
<path d="M47.0962 20.3183C47.8263 20.2993 48.5531 20.4234 49.2341 20.6832C49.9152 20.9429 50.537 21.3333 51.0635 21.8316C52.1331 22.8407 52.6679 24.1274 52.6681 25.6919C52.6681 27.2566 52.1332 28.5433 51.0635 29.5518C50.537 30.0502 49.9152 30.4406 49.2342 30.7004C48.5531 30.9602 47.8263 31.0842 47.0962 31.0651H45.0233V35.6711H41.0342V20.3183H47.0962ZM47.0962 27.3367C47.306 27.3411 47.5145 27.3024 47.7082 27.2231C47.902 27.1438 48.0769 27.0256 48.2216 26.876C48.3745 26.7188 48.4938 26.533 48.5723 26.3296C48.6509 26.1262 48.6871 25.9093 48.6788 25.6919C48.6878 25.476 48.6519 25.2605 48.5733 25.0588C48.4946 24.857 48.375 24.6732 48.2216 24.5185C48.0752 24.3719 47.8998 24.2563 47.7062 24.1789C47.5127 24.1016 47.305 24.064 47.0962 24.0686H45.0233V27.3367H47.0962Z" fill="#B1B1B1"/>
<path d="M62.6077 20.3184H66.5746V35.6712H62.6077V29.7715H58.2168V35.6712H54.2275V20.3184H58.2168V25.9988H62.6077V20.3184Z" fill="#B1B1B1"/>
<path d="M82.4324 33.6864C80.8759 35.1703 78.7938 36 76.6266 36C74.4595 36 72.3773 35.1703 70.8208 33.6864C70.0487 32.9493 69.4395 32.0634 69.031 31.0841C68.6226 30.1048 68.4239 29.0531 68.4471 27.9948C68.4239 26.9364 68.6227 25.8848 69.0311 24.9055C69.4395 23.9262 70.0488 23.0403 70.8208 22.3032C72.3773 20.8192 74.4595 19.9895 76.6266 19.9895C78.7938 19.9895 80.8759 20.8192 82.4324 22.3032C83.2044 23.0403 83.8136 23.9262 84.222 24.9055C84.6304 25.8848 84.8292 26.9365 84.806 27.9948C84.8293 29.0531 84.6305 30.1047 84.2221 31.084C83.8137 32.0633 83.2044 32.9492 82.4324 33.6864ZM73.6177 30.9886C74.3258 31.7314 75.2748 32.2078 76.3015 32.3359C77.3281 32.464 78.368 32.2357 79.2419 31.6903C80.1159 31.145 80.7692 30.3168 81.0893 29.3483C81.4094 28.3799 81.3762 27.332 80.9955 26.385C80.6148 25.438 79.9104 24.6514 79.0037 24.1606C78.0969 23.6699 77.0446 23.5057 76.0281 23.6964C75.0116 23.887 74.0944 24.4207 73.4348 25.2053C72.7751 25.9899 72.4141 26.9764 72.4141 27.9948C72.3953 28.5484 72.4925 29.0998 72.6995 29.6149C72.9066 30.1299 73.2191 30.5976 73.6177 30.9886Z" fill="#B1B1B1"/>
<path d="M96.5741 20.3184V24.1126H92.7182V35.6712H88.7289V24.1126H84.873V20.3184H96.5741Z" fill="#B1B1B1"/>
<path d="M110.627 33.6864C109.07 35.1703 106.988 36 104.821 36C102.654 36 100.572 35.1703 99.0151 33.6864C98.2431 32.9493 97.6338 32.0634 97.2254 31.0841C96.817 30.1048 96.6182 29.0531 96.6415 27.9948C96.6182 26.9365 96.817 25.8848 97.2254 24.9055C97.6338 23.9262 98.2431 23.0403 99.0151 22.3032C100.572 20.8192 102.654 19.9895 104.821 19.9895C106.988 19.9895 109.07 20.8192 110.627 22.3032C111.399 23.0403 112.008 23.9262 112.416 24.9055C112.825 25.8848 113.024 26.9365 113 27.9948C113.024 29.0531 112.825 30.1047 112.416 31.084C112.008 32.0633 111.399 32.9492 110.627 33.6864ZM101.812 30.9886C102.52 31.7314 103.469 32.2078 104.496 32.3359C105.522 32.464 106.562 32.2357 107.436 31.6903C108.31 31.145 108.964 30.3168 109.284 29.3483C109.604 28.3799 109.571 27.332 109.19 26.385C108.809 25.438 108.105 24.6514 107.198 24.1606C106.291 23.6699 105.239 23.5057 104.222 23.6964C103.206 23.887 102.289 24.4207 101.629 25.2053C100.969 25.9899 100.608 26.9764 100.608 27.9948C100.59 28.5484 100.687 29.0998 100.894 29.6149C101.101 30.1299 101.413 30.5976 101.812 30.9886Z" fill="#B1B1B1"/>
</g>
<defs>
<clipPath id="clip0_1_2065">
<rect width="113" height="36" fill="white"/>
</clipPath>
</defs>
</svg>
